<svg id="图层_1" data-name="图层 1" xmlns="http://www.w3.org/2000/svg" viewBox="0 0 16 16"><defs><style>.cls-1{fill:#0052d9;}.cls-2{fill:#fff;}.cls-3{fill:#78d4fd;}</style></defs><path class="cls-1" d="M14.39,4.63H11.22L13,7.69a.62.62,0,0,1,0,.62l-1.77,3.06h3.17a1,1,0,0,0,1-1V5.68A1,1,0,0,0,14.39,4.63Z"/><path class="cls-1" d="M9.52,13.71H4.23a1.15,1.15,0,0,1-1-.56l-.5-.87a.3.3,0,0,1,0-.26A.28.28,0,0,1,3,11.89h4a.6.6,0,0,0,.52-.3L9.35,8.3a.59.59,0,0,0,0-.6L7.45,4.41a.6.6,0,0,0-.52-.3H3A.28.28,0,0,1,2.75,4a.3.3,0,0,1,0-.26l.5-.87a1.15,1.15,0,0,1,1-.56H9.52a1.15,1.15,0,0,1,1,.56l2.64,4.59h0a1.07,1.07,0,0,1,0,1.12L10.5,13.15A1.15,1.15,0,0,1,9.52,13.71ZM3.44,12.42l.27.46a.6.6,0,0,0,.52.3H9.52a.59.59,0,0,0,.52-.3L12.69,8.3a.64.64,0,0,0,0-.6L10,3.12a.59.59,0,0,0-.52-.3H4.23a.6.6,0,0,0-.52.3l-.27.46H6.93a1.13,1.13,0,0,1,1,.57l1.9,3.29a1.12,1.12,0,0,1,0,1.12l-1.9,3.29a1.13,1.13,0,0,1-1,.57Z"/><path class="cls-1" d="M6.73,4.44H2.83a.5.5,0,0,0-.43.24L.63,7.75a.5.5,0,0,0,0,.5L2.4,11.32a.5.5,0,0,0,.43.24h3.9a.5.5,0,0,0,.43-.24L8.93,8.25a.5.5,0,0,0,0-.5L7.16,4.68A.5.5,0,0,0,6.73,4.44Z"/><path class="cls-2" d="M5.8,9.25h.82A.44.44,0,0,0,7,9.11a.46.46,0,0,0,0-.69.47.47,0,0,0-.3-.1H5.47a.27.27,0,0,1-.27-.23.28.28,0,0,1,.18-.32l.12,0H6.63a1,1,0,0,1,.91.54,1,1,0,0,1,.12.58,1,1,0,0,1-.31.66,1.08,1.08,0,0,1-.49.27,1.23,1.23,0,0,1-.27,0H5.14a1.83,1.83,0,0,1-.77-.15,1.84,1.84,0,0,1-.67-.5,1.71,1.71,0,0,1-.3-.5,1.89,1.89,0,0,1-.1-.41,2,2,0,0,1,0-.35,1.64,1.64,0,0,1,.09-.44,1.77,1.77,0,0,1,.35-.61,1.72,1.72,0,0,1,.64-.46A1.75,1.75,0,0,1,5,6.26h.14a.27.27,0,0,1,.24.27.27.27,0,0,1-.22.29,1.49,1.49,0,0,1-.21,0,1.23,1.23,0,0,0-.59.24,1.21,1.21,0,0,0-.39.53,1.32,1.32,0,0,0-.08.33,2.44,2.44,0,0,0,0,.27,1.24,1.24,0,0,0,.21.52,1.3,1.3,0,0,0,.52.41,1,1,0,0,0,.39.1C5.28,9.26,5.57,9.24,5.8,9.25Z"/><path class="cls-3" d="M1.89,8A3.13,3.13,0,0,1,2.4,6.32a3.19,3.19,0,0,1,.5-.6,3.33,3.33,0,0,1,.69-.49A3.29,3.29,0,0,1,4.27,5a2.54,2.54,0,0,1,.54-.09l.24,0a.34.34,0,0,1,.23.1.29.29,0,0,1,0,.4.44.44,0,0,1-.19.07,2.55,2.55,0,0,0-1.12.25,2.86,2.86,0,0,0-.65.44,2.65,2.65,0,0,0-.58.79,2.9,2.9,0,0,0-.19.54,3.05,3.05,0,0,0-.07.67,3.47,3.47,0,0,0,.06.45,2.38,2.38,0,0,0,.27.73,2.51,2.51,0,0,0,.56.7,2.7,2.7,0,0,0,.4.29,2.56,2.56,0,0,0,.64.27,2.91,2.91,0,0,0,.58.09H5.1a.27.27,0,0,1,.24.22.29.29,0,0,1-.17.32H4.84l-.33-.05A2.82,2.82,0,0,1,3.94,11a3.33,3.33,0,0,1-.84-.48,2.68,2.68,0,0,1-.45-.44,3.52,3.52,0,0,1-.39-.56A3.49,3.49,0,0,1,2,9c0-.13-.07-.27-.1-.41s0-.23,0-.35A1.48,1.48,0,0,1,1.89,8Z"/><path class="cls-2" d="M6.18,5.15a.33.33,0,0,1-.32.32.32.32,0,0,1-.32-.33.3.3,0,0,1,.32-.31A.32.32,0,0,1,6.18,5.15Z"/><path class="cls-2" d="M5.54,10.93a.32.32,0,0,1,.31-.32.33.33,0,0,1,.33.32.32.32,0,0,1-.33.32A.31.31,0,0,1,5.54,10.93Z"/><path class="cls-3" d="M5.85,6.86a.32.32,0,0,1,0-.63.32.32,0,1,1,0,.63Z"/><path class="cls-3" d="M10.76,9.92a.26.26,0,0,1-.26-.26V6.34a.27.27,0,0,1,.53,0V9.66A.27.27,0,0,1,10.76,9.92Z"/></svg>