<svg id="ad8a01c8-05f7-40f8-a5a1-a25b6c2d4597" data-name="图层 1" xmlns="http://www.w3.org/2000/svg" xmlns:xlink="http://www.w3.org/1999/xlink" viewBox="0 0 500 500"><defs><style>.e5ed0481-c361-4b81-b048-2c2f4e40d045{fill:url(#bf2dde6c-49f9-4441-834e-0800b7878e60);}.b2cfc7b2-95ec-45f7-993b-e254b00a90aa{fill:#fff;}</style><linearGradient id="bf2dde6c-49f9-4441-834e-0800b7878e60" x1="6.41" y1="250" x2="493.59" y2="250" gradientUnits="userSpaceOnUse"><stop offset="0" stop-color="#74cffd"/><stop offset="1" stop-color="#488fff"/></linearGradient></defs><path class="e5ed0481-c361-4b81-b048-2c2f4e40d045" d="M455.83,128.69h-54.2l-37-64.12a40.82,40.82,0,0,0-35.25-20.35H138.75A40.81,40.81,0,0,0,103.5,64.57l-18,31.1A9.54,9.54,0,0,0,93.8,110H236.09a21.7,21.7,0,0,1,18.73,10.82l68.36,118.39a21.72,21.72,0,0,1,0,21.64L254.82,379.21A21.7,21.7,0,0,1,236.09,390H93.8a9.54,9.54,0,0,0-8.26,14.3l18,31.1a40.81,40.81,0,0,0,35.25,20.35H329.36a40.82,40.82,0,0,0,35.25-20.35l37-64.12h54.2a37.76,37.76,0,0,0,37.76-37.75V166.44A37.76,37.76,0,0,0,455.83,128.69ZM348.09,425.89a21.69,21.69,0,0,1-18.73,10.81H138.75A21.69,21.69,0,0,1,120,425.89l-9.7-16.79H236.09a40.81,40.81,0,0,0,35.25-20.35l68.36-118.4a40.8,40.8,0,0,0,0-40.7l-68.36-118.4A40.81,40.81,0,0,0,236.09,90.9H110.32L120,74.11A21.69,21.69,0,0,1,138.75,63.3H329.36a21.69,21.69,0,0,1,18.73,10.81L443.4,239.18a21.72,21.72,0,0,1,0,21.64Zm-260-47.46a17.8,17.8,0,0,1-15.42-8.9L8.8,258.9a17.8,17.8,0,0,1,0-17.8L72.67,130.47a17.8,17.8,0,0,1,15.42-8.9H228.87a17.8,17.8,0,0,1,15.42,8.9L308.16,241.1a17.8,17.8,0,0,1,0,17.8L244.29,369.53a17.8,17.8,0,0,1-15.42,8.9ZM383.64,190.3V309.7a9.54,9.54,0,0,1-19.08,0V190.3a9.54,9.54,0,1,1,19.08,0Z"/><path class="b2cfc7b2-95ec-45f7-993b-e254b00a90aa" d="M195.34,294.94c11.12,0,20.22,0,29.32,0A16.68,16.68,0,0,0,237.09,290a15.74,15.74,0,0,0,4.68-9.95A16.23,16.23,0,0,0,235.14,265a17.13,17.13,0,0,0-10.78-3.36c-13.61-.05-27.21-.12-40.81,0a10.28,10.28,0,0,1-3.43-20,12.68,12.68,0,0,1,4.24-.59c13.65,0,27.3-.18,40.94,0,14.37.23,25.3,6.76,32.52,19.18a35.28,35.28,0,0,1,4.53,21,37.24,37.24,0,0,1-29,33.36,44.31,44.31,0,0,1-9.65.9q-26.1.11-52.19,0a68.88,68.88,0,0,1-27.88-5.52,65.9,65.9,0,0,1-24.18-18,61.89,61.89,0,0,1-10.62-18,64.74,64.74,0,0,1-3.69-14.9,74.33,74.33,0,0,1-.32-12.47,58.89,58.89,0,0,1,3.21-16,64.57,64.57,0,0,1,35.82-38.5,59.76,59.76,0,0,1,21.41-4.82,29.25,29.25,0,0,1,5,0,10.07,10.07,0,0,1,8.78,9.73A10.21,10.21,0,0,1,171,207.62c-2.38.41-4.85.31-7.28.58A42.11,42.11,0,0,0,142.14,217a43.11,43.11,0,0,0-14,18.93,42,42,0,0,0-2.66,11.89,45.28,45.28,0,0,0,.31,9.81,41.15,41.15,0,0,0,7.63,18.48,45.24,45.24,0,0,0,18.67,15,40,40,0,0,0,14,3.55C176.48,295.26,186.92,294.73,195.34,294.94Z"/><path class="b2cfc7b2-95ec-45f7-993b-e254b00a90aa" d="M54.47,251.26a119.11,119.11,0,0,1,2.94-25.51A113.63,113.63,0,0,1,72.7,189.52a110.4,110.4,0,0,1,18.17-21.74,114.51,114.51,0,0,1,24.84-17.62A115.74,115.74,0,0,1,140,140.72a104.34,104.34,0,0,1,19.64-3.26c2.81-.18,5.62-.5,8.44-.45a11,11,0,0,1,8.35,3.49c3.57,3.86,3.13,11-1,14.31a10.63,10.63,0,0,1-6.86,2.43,93.76,93.76,0,0,0-40.49,9.33,95,95,0,0,0-44.19,44.26,93.29,93.29,0,0,0-6.82,19.51,94.87,94.87,0,0,0-2.38,24,91.3,91.3,0,0,0,1.91,16.14,94.25,94.25,0,0,0,30.08,51.54,90.33,90.33,0,0,0,14.46,10.54,93.57,93.57,0,0,0,23,9.68,101.15,101.15,0,0,0,21,3.24c1.68.09,3.36.13,5,.21,3.89.17,8,4.08,8.58,8.09a10.18,10.18,0,0,1-6.3,11.31,6.52,6.52,0,0,1-2.7.57c-3-.05-6,0-9.09-.19a118.32,118.32,0,0,1-12-1.51,113.53,113.53,0,0,1-50.8-22.9,110,110,0,0,1-16.28-15.79A117.2,117.2,0,0,1,67.79,305a113.17,113.17,0,0,1-7.92-18.83,117.76,117.76,0,0,1-3.67-14.81,116.38,116.38,0,0,1-1.49-12.77C54.55,256.14,54.51,253.7,54.47,251.26Z"/><path class="b2cfc7b2-95ec-45f7-993b-e254b00a90aa" d="M208.84,147.18a11.53,11.53,0,1,1-23.06-.24,11.37,11.37,0,0,1,11.49-11.35C204.19,135.64,208.69,140.86,208.84,147.18Z"/><path class="b2cfc7b2-95ec-45f7-993b-e254b00a90aa" d="M185.81,355.67c-.31-6,5.07-11.56,11.38-11.51a11.53,11.53,0,1,1,0,23.06C190.58,367.23,185.39,361.34,185.81,355.67Z"/><path class="b2cfc7b2-95ec-45f7-993b-e254b00a90aa" d="M197.24,208.78c-6.3.49-11.32-5.83-11.28-11.13a11.35,11.35,0,1,1,22.69-.13C208.72,203,203.75,209.27,197.24,208.78Z"/></svg>