<svg xmlns="http://www.w3.org/2000/svg" xmlns:xlink="http://www.w3.org/1999/xlink" viewBox="0 0 974.12 822.92"><defs><style>.cls-1{fill:url(#未命名的渐变_2);}.cls-2{fill:#fff;}</style><linearGradient id="未命名的渐变_2" y1="411.46" x2="974.12" y2="411.46" gradientUnits="userSpaceOnUse"><stop offset="0" stop-color="#79d4fd"/><stop offset="1" stop-color="#0052d8"/></linearGradient></defs><g id="图层_2" data-name="图层 2"><g id="图层_1-2" data-name="图层 1"><path class="cls-1" d="M898.63,168.89H790.24l-74-128.19A81.63,81.63,0,0,0,645.74,0H264.61a81.6,81.6,0,0,0-70.49,40.7l-35.89,62.17a19.07,19.07,0,0,0,16.51,28.6H459.25A43.36,43.36,0,0,1,496.7,153.1L633.38,389.83a43.35,43.35,0,0,1,0,43.26L496.7,669.82a43.36,43.36,0,0,1-37.45,21.63H174.74a19.08,19.08,0,0,0-16.51,28.61l35.89,62.17a81.61,81.61,0,0,0,70.49,40.69H645.74a81.63,81.63,0,0,0,70.49-40.7l74-128.19H898.63a75.49,75.49,0,0,0,75.49-75.49V244.39A75.49,75.49,0,0,0,898.63,168.89ZM683.2,763.15a43.39,43.39,0,0,1-37.46,21.63H264.61a43.38,43.38,0,0,1-37.46-21.63l-19.38-33.56H459.25a81.63,81.63,0,0,0,70.49-40.7L666.41,452.16a81.6,81.6,0,0,0,0-81.4L529.74,134a81.65,81.65,0,0,0-70.49-40.7H207.77l19.38-33.56a43.38,43.38,0,0,1,37.46-21.63H645.74A43.39,43.39,0,0,1,683.2,59.77L873.76,389.83a43.39,43.39,0,0,1,0,43.26ZM163.31,668.26a35.59,35.59,0,0,1-30.83-17.8L4.77,429.26a35.6,35.6,0,0,1,0-35.6l127.71-221.2a35.61,35.61,0,0,1,30.83-17.8h281.5a35.6,35.6,0,0,1,30.82,17.8l127.72,221.2a35.65,35.65,0,0,1,0,35.6L475.63,650.46a35.58,35.58,0,0,1-30.82,17.8Zm591-376.17V530.84a19.08,19.08,0,0,1-38.15,0V292.09a19.08,19.08,0,0,1,38.15,0Z"/><path class="cls-2" d="M377.77,501.31c22.23,0,40.42-.07,58.61,0,9.67.05,18-3,24.87-9.84a31.53,31.53,0,0,0,9.36-19.89c1.14-12.51-3.45-22.55-13.27-30.18-6.3-4.9-13.74-6.7-21.55-6.72-27.2-.09-54.41-.23-81.61.06-9.87.11-18.64-7.71-20.14-16.76a20.62,20.62,0,0,1,13.3-23.15,25.3,25.3,0,0,1,8.47-1.17c27.29,0,54.58-.37,81.86.07,28.73.47,50.59,13.52,65,38.37,7.5,12.91,10.28,27.06,9.06,42a74.5,74.5,0,0,1-57.95,66.71,88.48,88.48,0,0,1-19.29,1.81q-52.17.21-104.35,0c-19.28,0-38-3.21-55.74-11a131.82,131.82,0,0,1-48.35-36,123.69,123.69,0,0,1-21.24-35.92A128.49,128.49,0,0,1,197.46,430a145.56,145.56,0,0,1-.64-24.94,116.87,116.87,0,0,1,6.4-32.07,129.15,129.15,0,0,1,71.64-77c13.7-5.68,27.89-9.21,42.81-9.63,3.36-.09,6.69-.48,10.06,0a20.14,20.14,0,0,1,17.56,19.45c.38,9.95-6.57,19.25-16.22,20.92-4.78.83-9.72.61-14.58,1.17a84.16,84.16,0,0,0-43.1,17.62,86,86,0,0,0-28,37.86A83.56,83.56,0,0,0,238,407.15a89.24,89.24,0,0,0,.61,19.61,82.5,82.5,0,0,0,15.25,37,90.6,90.6,0,0,0,37.34,30,79.14,79.14,0,0,0,28,7.09C340.05,502,360.94,500.89,377.77,501.31Z"/><path class="cls-2" d="M96.09,414A237.49,237.49,0,0,1,102,363a227.11,227.11,0,0,1,30.57-72.43,221.78,221.78,0,0,1,36.33-43.48A229.92,229.92,0,0,1,267.15,193a207.75,207.75,0,0,1,39.27-6.51c5.62-.37,11.23-1,16.87-.91,6.46.11,12.12,2,16.71,7,7.14,7.73,6.26,22-2,28.62A21.3,21.3,0,0,1,324.32,226a187.4,187.4,0,0,0-81,18.66A190.08,190.08,0,0,0,155,333.14a186.24,186.24,0,0,0-13.62,39,188.81,188.81,0,0,0-4.76,48.07,181.68,181.68,0,0,0,3.82,32.28,188.24,188.24,0,0,0,60.13,103,181.81,181.81,0,0,0,28.93,21.08A187.2,187.2,0,0,0,275.39,596a202.08,202.08,0,0,0,42.05,6.47c3.36.18,6.72.27,10.08.42,7.77.35,16,8.15,17.16,16.19,1.45,10.12-3.27,18.56-12.61,22.61a13,13,0,0,1-5.4,1.13c-6.05-.09-12.1.07-18.16-.37a241.15,241.15,0,0,1-24-3,226.86,226.86,0,0,1-101.59-45.8,220.31,220.31,0,0,1-32.56-31.56,233.6,233.6,0,0,1-27.61-40.63,223.74,223.74,0,0,1-15.84-37.65,221.4,221.4,0,0,1-10.33-55.16C96.25,423.73,96.18,418.86,96.09,414Z"/><path class="cls-2" d="M404.75,205.86a23.05,23.05,0,1,1-46.1-.46c.26-12.82,10.24-22.78,23-22.69C395.46,182.8,404.46,193.24,404.75,205.86Z"/><path class="cls-2" d="M358.7,622.76c-.6-12,10.15-23.12,22.77-23a23.06,23.06,0,1,1-.06,46.11C368.25,645.86,357.88,634.09,358.7,622.76Z"/><path class="cls-2" d="M381.57,329C369,330,358.94,317.39,359,306.78c.09-12.52,10.37-22.86,22.66-22.85a23,23,0,0,1,22.69,22.59C404.51,317.55,394.58,330,381.57,329Z"/></g></g></svg>