<svg width="16" height="17" viewBox="0 0 16 17" fill="none" xmlns="http://www.w3.org/2000/svg">
    <path d="M10.714 12.6992C10.0409 12.6992 9.36776 12.7123 8.69519 12.697C6.47447 12.6466 4.59562 11.0506 4.27551 8.93629C3.91636 6.56089 5.5119 4.36283 7.92781 3.91731C8.19494 3.86805 8.46598 3.8467 8.73869 3.85053C9.14357 3.85655 9.44918 4.15649 9.44807 4.55002C9.44695 4.94135 9.13799 5.24293 8.73422 5.24621C7.28981 5.25935 6.02609 6.24344 5.72884 7.58603C5.40594 9.04685 6.16719 10.4677 7.58483 11.0512C7.9964 11.2208 8.42471 11.3046 8.87086 11.304C10.1457 11.3029 11.4201 11.304 12.6949 11.304C13.3675 11.304 13.9062 10.7912 13.9101 10.1464C13.9146 9.50496 13.3781 8.97679 12.7078 8.97405C11.7407 8.96967 10.7731 8.97296 9.8061 8.97296C9.38505 8.97296 9.07107 8.68123 9.06884 8.2888C9.06605 7.88104 9.36887 7.57946 9.79327 7.57837C10.8138 7.57673 11.835 7.56414 12.855 7.58549C14.0529 7.61066 15.1075 8.54112 15.2982 9.70364C15.5196 11.0533 14.6758 12.3095 13.3285 12.634C13.1065 12.6877 12.8806 12.7041 12.6525 12.7041C12.0062 12.703 11.3598 12.7041 10.7135 12.7041C10.7135 12.7024 10.7135 12.7013 10.7135 12.6997L10.714 12.6992Z"
          fill="#0153D7"/>
    <path d="M0.667031 8.2692C0.694916 6.35904 1.30893 4.65795 2.56373 3.18838C3.53411 2.05268 4.73927 1.24975 6.16695 0.771934C6.79156 0.562856 7.43402 0.432045 8.09432 0.387164C8.36536 0.368555 8.63751 0.332432 8.9052 0.387164C9.27216 0.462148 9.4852 0.783428 9.44337 1.16382C9.40768 1.48619 9.09816 1.75274 8.75017 1.75548C7.71063 1.76424 6.71628 1.97331 5.79051 2.43909C4.10351 3.28744 2.96359 4.60048 2.38638 6.37546C2.21685 6.89706 2.13487 7.43398 2.10754 7.98186C2.0501 9.14766 2.29883 10.245 2.84759 11.2762C3.4789 12.4639 4.40131 13.3747 5.6009 14.015C6.32422 14.4009 7.09606 14.6406 7.91196 14.7408C8.18021 14.7736 8.45236 14.7873 8.7234 14.7939C9.14334 14.8037 9.44672 15.0894 9.44728 15.4912C9.44728 15.8907 9.13943 16.1906 8.72395 16.1885C6.81554 16.1786 5.11906 15.5782 3.63672 14.4042C2.74832 13.7003 2.04954 12.8388 1.53479 11.8394C1.0998 10.9949 0.824299 10.1011 0.722242 9.15751C0.688781 8.86305 0.665916 8.5675 0.667031 8.2692Z"
          fill="#79D3FC"/>
    <path d="M10.7973 16.2728C10.35 16.2706 10.0037 15.928 10.0054 15.4885C10.0065 15.0517 10.3578 14.7069 10.8034 14.7058C11.2479 14.7042 11.6126 15.0649 11.6065 15.5005C11.6004 15.9362 11.2457 16.275 10.7979 16.2728H10.7973Z"
          fill="#0153D7"/>
    <path d="M10.0054 1.06415C10.0043 0.623004 10.3612 0.270526 10.8062 0.272715C11.244 0.274905 11.6037 0.627382 11.6059 1.05649C11.6082 1.48997 11.2401 1.85175 10.8012 1.84737C10.3578 1.84299 10.0059 1.49654 10.0054 1.06415Z"
          fill="#0153D7"/>
    <path d="M10.6223 5.32779C10.1795 5.32779 9.82262 4.97914 9.82373 4.54894C9.82485 4.12531 10.194 3.75806 10.6207 3.75587C11.0668 3.75368 11.4254 4.10561 11.426 4.54621C11.4265 4.99447 11.0836 5.32779 10.6229 5.32724L10.6223 5.32779Z"
          fill="#79D3FC"/>
</svg>
